<?xml version="1.0" encoding="UTF-8" standalone="no"?>
<!-- Created with Inkscape (http://www.inkscape.org/) -->

<svg
   xmlns:dc="http://purl.org/dc/elements/1.1/"
   xmlns:cc="http://creativecommons.org/ns#"
   xmlns:rdf="http://www.w3.org/1999/02/22-rdf-syntax-ns#"
   xmlns:svg="http://www.w3.org/2000/svg"
   xmlns="http://www.w3.org/2000/svg"
   xmlns:xlink="http://www.w3.org/1999/xlink"
   xmlns:sodipodi="http://sodipodi.sourceforge.net/DTD/sodipodi-0.dtd"
   xmlns:inkscape="http://www.inkscape.org/namespaces/inkscape"
   width="744.09448819"
   height="1052.3622047"
   id="svg3287"
   version="1.1"
   inkscape:version="0.48.5 r10040"
   sodipodi:docname="wait.svg">
  <defs
     id="defs3289" />
  <sodipodi:namedview
     id="base"
     pagecolor="#ffffff"
     bordercolor="#666666"
     borderopacity="1.0"
     inkscape:pageopacity="0.0"
     inkscape:pageshadow="2"
     inkscape:zoom="0.35"
     inkscape:cx="375"
     inkscape:cy="520"
     inkscape:document-units="px"
     inkscape:current-layer="layer1"
     showgrid="false"
     inkscape:window-width="1440"
     inkscape:window-height="848"
     inkscape:window-x="-8"
     inkscape:window-y="-8"
     inkscape:window-maximized="1" />
  <metadata
     id="metadata3292">
    <rdf:RDF>
      <cc:Work
         rdf:about="">
        <dc:format>image/svg+xml</dc:format>
        <dc:type
           rdf:resource="http://purl.org/dc/dcmitype/StillImage" />
        <dc:title></dc:title>
      </cc:Work>
    </rdf:RDF>
  </metadata>
  <g
     inkscape:label="Layer 1"
     inkscape:groupmode="layer"
     id="layer1">
    <image
       sodipodi:absref="C:\git\RoboCap\robot-game\cards\svg\robocap_512x512.png"
       xlink:href="robocap_512x512.png"
       width="128"
       height="128"
       id="image3101"
       x="566.92914"
       y="871.21259"
       style="display:inline" />
    <rect
       style="fill:#000000;display:inline"
       id="rect3256"
       width="744.09448"
       height="3.5433071"
       x="0"
       y="304.7244" />
    <g
       id="g3032"
       transform="matrix(15.625,0,0,15.625,116.01799,424.54466)">
      <g
         id="icomoon-ignore" />
      <path
         id="path3024"
         d="M 32,18 V 16 H 25.96 C 25.777,13.729 24.967,11.655 23.72,9.992 h 5.061 L 30.97,1.234 29.03,0.749 27.219,7.991 H 21.76 C 21.732,7.969 21.704,7.948 21.676,7.927 21.886,7.318 22,6.664 22,5.983 c 0,-3.305 -2.686,-5.984 -6,-5.984 -3.314,0 -6,2.679 -6,5.984 0,0.68 0.114,1.334 0.324,1.944 C 10.296,7.948 10.268,7.97 10.24,7.991 H 4.781 L 2.97,0.749 1.03,1.234 3.219,9.992 H 8.28 C 7.034,11.655 6.224,13.728 6.04,16 H 0 v 2 h 6.043 c 0.119,1.427 0.485,2.775 1.051,3.992 H 3.219 l -2.189,8.757 1.94,0.485 1.811,-7.243 h 3.511 c 1.834,2.439 4.606,3.992 7.708,3.992 3.102,0 5.874,-1.554 7.708,-3.992 h 3.511 l 1.811,7.243 1.94,-0.485 -2.189,-8.757 H 24.906 C 25.473,20.775 25.838,19.427 25.957,18 H 32 z"
         inkscape:connector-curvature="0"
         style="fill:#000000" />
    </g>
  </g>
</svg>
