<?xml version="1.0" encoding="UTF-8" standalone="no"?>
<!-- Created with Inkscape (http://www.inkscape.org/) -->

<svg
   xmlns:dc="http://purl.org/dc/elements/1.1/"
   xmlns:cc="http://creativecommons.org/ns#"
   xmlns:rdf="http://www.w3.org/1999/02/22-rdf-syntax-ns#"
   xmlns:svg="http://www.w3.org/2000/svg"
   xmlns="http://www.w3.org/2000/svg"
   xmlns:xlink="http://www.w3.org/1999/xlink"
   xmlns:sodipodi="http://sodipodi.sourceforge.net/DTD/sodipodi-0.dtd"
   xmlns:inkscape="http://www.inkscape.org/namespaces/inkscape"
   width="744.09448819"
   height="1052.3622047"
   id="svg3287"
   version="1.1"
   inkscape:version="0.48.5 r10040"
   sodipodi:docname="clock.svg">
  <defs
     id="defs3289" />
  <sodipodi:namedview
     id="base"
     pagecolor="#ffffff"
     bordercolor="#666666"
     borderopacity="1.0"
     inkscape:pageopacity="0.0"
     inkscape:pageshadow="2"
     inkscape:zoom="0.35"
     inkscape:cx="375"
     inkscape:cy="520"
     inkscape:document-units="px"
     inkscape:current-layer="layer1"
     showgrid="false"
     inkscape:window-width="1440"
     inkscape:window-height="848"
     inkscape:window-x="-8"
     inkscape:window-y="-8"
     inkscape:window-maximized="1" />
  <metadata
     id="metadata3292">
    <rdf:RDF>
      <cc:Work
         rdf:about="">
        <dc:format>image/svg+xml</dc:format>
        <dc:type
           rdf:resource="http://purl.org/dc/dcmitype/StillImage" />
        <dc:title></dc:title>
      </cc:Work>
    </rdf:RDF>
  </metadata>
  <g
     inkscape:label="Layer 1"
     inkscape:groupmode="layer"
     id="layer1">
    <image
       style="display:inline"
       y="871.21259"
       x="566.92914"
       id="image3101"
       xlink:href="robocap_512x512.png"
       height="128"
       width="128" />
    <rect
       style="fill:#000000;display:inline"
       id="rect3256"
       width="744.09448"
       height="3.5433071"
       x="0"
       y="304.7244" />
    <path
       style="fill:#000000"
       id="path3070"
       d="M 614.71138,618.09898 402.11268,435.87165 c -16.60396,-14.23309 -43.5256,-14.23309 -60.13088,0 L 129.3831,618.09898 c -16.60529,14.23309 -16.60529,37.30877 0,51.54186 16.60528,14.23423 43.52692,14.23423 60.13221,0 l 140.01219,-120.01151 0,349.35826 c 0,20.12814 19.03688,36.44546 42.51974,36.44546 23.48286,0 42.51974,-16.31732 42.51974,-36.44546 l 0,-349.35826 140.01352,120.01151 c 8.30198,7.11597 19.18437,10.67396 30.06544,10.67396 10.88107,0 21.76347,-3.55799 30.06544,-10.6751 16.60529,-14.23309 16.60529,-37.30763 0,-51.54072 z"
       inkscape:connector-curvature="0" />
  </g>
</svg>
