<?xml version="1.0" encoding="UTF-8" standalone="no"?>
<!-- Created with Inkscape (http://www.inkscape.org/) -->

<svg
   xmlns:dc="http://purl.org/dc/elements/1.1/"
   xmlns:cc="http://creativecommons.org/ns#"
   xmlns:rdf="http://www.w3.org/1999/02/22-rdf-syntax-ns#"
   xmlns:svg="http://www.w3.org/2000/svg"
   xmlns="http://www.w3.org/2000/svg"
   xmlns:xlink="http://www.w3.org/1999/xlink"
   xmlns:sodipodi="http://sodipodi.sourceforge.net/DTD/sodipodi-0.dtd"
   xmlns:inkscape="http://www.inkscape.org/namespaces/inkscape"
   width="744.09448819"
   height="1052.3622047"
   id="svg3287"
   version="1.1"
   inkscape:version="0.48.5 r10040"
   sodipodi:docname="bug.pdf">
  <defs
     id="defs3289" />
  <sodipodi:namedview
     id="base"
     pagecolor="#ffffff"
     bordercolor="#666666"
     borderopacity="1.0"
     inkscape:pageopacity="0.0"
     inkscape:pageshadow="2"
     inkscape:zoom="0.35"
     inkscape:cx="375"
     inkscape:cy="520"
     inkscape:document-units="px"
     inkscape:current-layer="layer1"
     showgrid="false"
     inkscape:window-width="1440"
     inkscape:window-height="848"
     inkscape:window-x="-8"
     inkscape:window-y="-8"
     inkscape:window-maximized="1" />
  <metadata
     id="metadata3292">
    <rdf:RDF>
      <cc:Work
         rdf:about="">
        <dc:format>image/svg+xml</dc:format>
        <dc:type
           rdf:resource="http://purl.org/dc/dcmitype/StillImage" />
        <dc:title></dc:title>
      </cc:Work>
    </rdf:RDF>
  </metadata>
  <g
     inkscape:label="Layer 1"
     inkscape:groupmode="layer"
     id="layer1">
    <image
       style="display:inline"
       y="871.21259"
       x="566.92914"
       id="image3101"
       xlink:href="C:\git\RoboCap\robot-game\cards\svg\robocap_512x512.png"
       height="128"
       width="128"
       sodipodi:absref="C:\git\RoboCap\robot-game\cards\svg\robocap_512x512.png" />
    <rect
       style="fill:#000000;display:inline"
       id="rect3256"
       width="744.09448"
       height="3.5433071"
       x="0"
       y="304.7244" />
    <g
       id="g3047"
       transform="matrix(15.944882,0,0,15.944882,116.92913,425.19682)">
      <g
         id="icomoon-ignore-1" />
      <path
         id="path3039"
         d="M 32,14 H 28.846 C 27.982,8.43 23.57,4.018 18,3.154 V 0 H 14 V 3.154 C 8.43,4.018 4.018,8.43 3.154,14 H 0 v 4 H 3.154 C 4.018,23.57 8.43,27.982 14,28.846 V 32 h 4 V 28.846 C 23.57,27.982 27.982,23.57 28.846,18 H 32 v -4 z m -7.224,0 H 21.658 C 21.055,12.295 19.705,10.944 18,10.342 V 7.224 C 21.36,7.989 24.01,10.64 24.776,14 z M 16,18 c -1.105,0 -2,-0.895 -2,-2 0,-1.105 0.895,-2 2,-2 1.105,0 2,0.895 2,2 0,1.105 -0.895,2 -2,2 z M 14,7.224 v 3.118 C 12.295,10.945 10.944,12.295 10.342,14 H 7.224 C 7.989,10.64 10.64,7.99 14,7.224 z M 7.224,18 h 3.118 c 0.603,1.705 1.953,3.056 3.658,3.658 v 3.118 C 10.64,24.011 7.99,21.36 7.224,18 z M 18,24.776 V 21.658 C 19.705,21.055 21.056,19.705 21.658,18 h 3.118 C 24.011,21.36 21.36,24.01 18,24.776 z"
         inkscape:connector-curvature="0"
         style="fill:#000000" />
    </g>
  </g>
</svg>
