<?xml version="1.0" encoding="UTF-8" standalone="no"?>
<!-- Created with Inkscape (http://www.inkscape.org/) -->

<svg
   xmlns:dc="http://purl.org/dc/elements/1.1/"
   xmlns:cc="http://creativecommons.org/ns#"
   xmlns:rdf="http://www.w3.org/1999/02/22-rdf-syntax-ns#"
   xmlns:svg="http://www.w3.org/2000/svg"
   xmlns="http://www.w3.org/2000/svg"
   xmlns:xlink="http://www.w3.org/1999/xlink"
   xmlns:sodipodi="http://sodipodi.sourceforge.net/DTD/sodipodi-0.dtd"
   xmlns:inkscape="http://www.inkscape.org/namespaces/inkscape"
   width="744.09448819"
   height="1052.3622047"
   id="svg3287"
   version="1.1"
   inkscape:version="0.48.5 r10040"
   sodipodi:docname="Nowy dokument 7">
  <defs
     id="defs3289" />
  <sodipodi:namedview
     id="base"
     pagecolor="#ffffff"
     bordercolor="#666666"
     borderopacity="1.0"
     inkscape:pageopacity="0.0"
     inkscape:pageshadow="2"
     inkscape:zoom="0.35"
     inkscape:cx="375"
     inkscape:cy="520"
     inkscape:document-units="px"
     inkscape:current-layer="layer1"
     showgrid="false"
     inkscape:window-width="1440"
     inkscape:window-height="848"
     inkscape:window-x="-8"
     inkscape:window-y="-8"
     inkscape:window-maximized="1" />
  <metadata
     id="metadata3292">
    <rdf:RDF>
      <cc:Work
         rdf:about="">
        <dc:format>image/svg+xml</dc:format>
        <dc:type
           rdf:resource="http://purl.org/dc/dcmitype/StillImage" />
        <dc:title></dc:title>
      </cc:Work>
    </rdf:RDF>
  </metadata>
  <g
     inkscape:label="Layer 1"
     inkscape:groupmode="layer"
     id="layer1">
    <image
       style="display:inline"
       y="871.21259"
       x="566.92914"
       id="image3101"
       xlink:href="robocap_512x512.png"
       height="128"
       width="128" />
    <path
       style="fill:#000000;display:inline"
       id="path3050"
       d="m 446.30113,798.06105 -105.372,-105.373 0,-141.255 64,0 0,114.745 86.628,86.627 z m -73.372,-374.628 c -141.385,0 -256,114.615 -256,256 0,141.385 114.615,256 256,256 141.385,0 256,-114.615 256,-256 0,-141.385 -114.615,-256 -256,-256 z m 0,448 c -106.039,0 -192,-85.961 -192,-192 0,-106.039 85.961,-192 192,-192 106.039,0 192,85.961 192,192 0,106.039 -85.961,192 -192,192 z"
       inkscape:connector-curvature="0" />
    <rect
       style="fill:#000000;display:inline"
       id="rect3256"
       width="744.09448"
       height="3.5433071"
       x="0"
       y="304.7244" />
  </g>
</svg>
